<mxfile host="app.diagrams.net" modified="2022-06-23T14:44:56.342Z" agent="5.0 (Macintosh; Intel Mac OS X 10_15_7) AppleWebKit/537.36 (KHTML, like Gecko) Chrome/102.0.0.0 Safari/537.36" etag="VBnSfHMPghtc3cIan_dc" version="20.0.3" type="github">
  <diagram id="xfaJlfA5E3GFHY162gFL" name="第 1 页">
    <mxGraphModel dx="1211" dy="640" grid="1" gridSize="10" guides="1" tooltips="1" connect="1" arrows="1" fold="1" page="1" pageScale="1" pageWidth="827" pageHeight="1169" math="0" shadow="0">
      <root>
        <mxCell id="0" />
        <mxCell id="1" parent="0" />
        <mxCell id="iqc0jquPFhY8QkZTMED7-52" value="" style="group" parent="1" vertex="1" connectable="0">
          <mxGeometry x="120" y="170" width="1590" height="290" as="geometry" />
        </mxCell>
        <mxCell id="iqc0jquPFhY8QkZTMED7-2" value="L2" style="rounded=0;whiteSpace=wrap;html=1;fillColor=#ffe6cc;strokeColor=#d79b00;fontSize=16;" parent="iqc0jquPFhY8QkZTMED7-52" vertex="1">
          <mxGeometry y="45.78947368421053" width="169.66752936492136" height="61.05263157894738" as="geometry" />
        </mxCell>
        <mxCell id="iqc0jquPFhY8QkZTMED7-4" value="L1" style="rounded=0;whiteSpace=wrap;html=1;fillColor=#ffe6cc;strokeColor=#d79b00;fontSize=16;" parent="iqc0jquPFhY8QkZTMED7-52" vertex="1">
          <mxGeometry y="106.84210526315792" width="169.66752936492136" height="61.05263157894738" as="geometry" />
        </mxCell>
        <mxCell id="iqc0jquPFhY8QkZTMED7-6" value="L0" style="rounded=0;whiteSpace=wrap;html=1;fillColor=#ffe6cc;strokeColor=#d79b00;fontSize=16;" parent="iqc0jquPFhY8QkZTMED7-52" vertex="1">
          <mxGeometry y="167.89473684210526" width="169.66752936492136" height="61.05263157894738" as="geometry" />
        </mxCell>
        <mxCell id="iqc0jquPFhY8QkZTMED7-7" value="元素：a&lt;br&gt;权重：1" style="rounded=0;whiteSpace=wrap;html=1;fillColor=#dae8fc;strokeColor=#6c8ebf;fontSize=16;" parent="iqc0jquPFhY8QkZTMED7-52" vertex="1">
          <mxGeometry x="254.50129404738203" y="167.89473684210526" width="84.83376468246068" height="61.05263157894738" as="geometry" />
        </mxCell>
        <mxCell id="iqc0jquPFhY8QkZTMED7-5" style="edgeStyle=orthogonalEdgeStyle;rounded=0;orthogonalLoop=1;jettySize=auto;html=1;entryX=0;entryY=0.5;entryDx=0;entryDy=0;fontSize=16;" parent="iqc0jquPFhY8QkZTMED7-52" source="iqc0jquPFhY8QkZTMED7-6" target="iqc0jquPFhY8QkZTMED7-7" edge="1">
          <mxGeometry as="geometry" />
        </mxCell>
        <mxCell id="iqc0jquPFhY8QkZTMED7-9" value="leve[0]" style="rounded=0;whiteSpace=wrap;html=1;fillColor=#dae8fc;strokeColor=#6c8ebf;fontSize=16;" parent="iqc0jquPFhY8QkZTMED7-52" vertex="1">
          <mxGeometry x="339.33505872984273" y="167.89473684210526" width="84.83376468246068" height="61.05263157894738" as="geometry" />
        </mxCell>
        <mxCell id="iqc0jquPFhY8QkZTMED7-10" style="edgeStyle=orthogonalEdgeStyle;curved=1;rounded=0;orthogonalLoop=1;jettySize=auto;html=1;entryX=0.5;entryY=1;entryDx=0;entryDy=0;fontSize=16;" parent="iqc0jquPFhY8QkZTMED7-52" source="iqc0jquPFhY8QkZTMED7-11" target="iqc0jquPFhY8QkZTMED7-7" edge="1">
          <mxGeometry as="geometry">
            <Array as="points">
              <mxPoint x="551.4194704359944" y="290" />
              <mxPoint x="296.9181763886123" y="290" />
            </Array>
          </mxGeometry>
        </mxCell>
        <mxCell id="iqc0jquPFhY8QkZTMED7-11" value="元素：ab&lt;br&gt;权重：2" style="rounded=0;whiteSpace=wrap;html=1;fillColor=#dae8fc;strokeColor=#6c8ebf;fontSize=16;" parent="iqc0jquPFhY8QkZTMED7-52" vertex="1">
          <mxGeometry x="509.00258809476406" y="106.84210526315792" width="84.83376468246068" height="122.10526315789475" as="geometry" />
        </mxCell>
        <mxCell id="iqc0jquPFhY8QkZTMED7-3" style="edgeStyle=orthogonalEdgeStyle;rounded=0;orthogonalLoop=1;jettySize=auto;html=1;entryX=0;entryY=0.25;entryDx=0;entryDy=0;fontSize=16;" parent="iqc0jquPFhY8QkZTMED7-52" source="iqc0jquPFhY8QkZTMED7-4" target="iqc0jquPFhY8QkZTMED7-11" edge="1">
          <mxGeometry as="geometry" />
        </mxCell>
        <mxCell id="iqc0jquPFhY8QkZTMED7-8" style="edgeStyle=orthogonalEdgeStyle;rounded=0;orthogonalLoop=1;jettySize=auto;html=1;entryX=0;entryY=0.75;entryDx=0;entryDy=0;fontSize=16;" parent="iqc0jquPFhY8QkZTMED7-52" source="iqc0jquPFhY8QkZTMED7-9" target="iqc0jquPFhY8QkZTMED7-11" edge="1">
          <mxGeometry as="geometry" />
        </mxCell>
        <mxCell id="iqc0jquPFhY8QkZTMED7-13" value="&lt;span style=&quot;font-size: 16px;&quot;&gt;leve[0]&lt;/span&gt;" style="rounded=0;whiteSpace=wrap;html=1;fillColor=#dae8fc;strokeColor=#6c8ebf;fontSize=16;" parent="iqc0jquPFhY8QkZTMED7-52" vertex="1">
          <mxGeometry x="593.8363527772246" y="167.89473684210526" width="84.83376468246068" height="61.05263157894738" as="geometry" />
        </mxCell>
        <mxCell id="iqc0jquPFhY8QkZTMED7-15" value="&lt;span style=&quot;font-size: 16px;&quot;&gt;leve[1]&lt;/span&gt;" style="rounded=0;whiteSpace=wrap;html=1;fillColor=#dae8fc;strokeColor=#6c8ebf;fontSize=16;" parent="iqc0jquPFhY8QkZTMED7-52" vertex="1">
          <mxGeometry x="593.8363527772246" y="106.84210526315792" width="84.83376468246068" height="61.05263157894738" as="geometry" />
        </mxCell>
        <mxCell id="iqc0jquPFhY8QkZTMED7-16" style="edgeStyle=orthogonalEdgeStyle;rounded=0;orthogonalLoop=1;jettySize=auto;html=1;entryX=0.75;entryY=1;entryDx=0;entryDy=0;fontSize=16;curved=1;exitX=0.25;exitY=1;exitDx=0;exitDy=0;" parent="iqc0jquPFhY8QkZTMED7-52" source="iqc0jquPFhY8QkZTMED7-17" target="iqc0jquPFhY8QkZTMED7-11" edge="1">
          <mxGeometry as="geometry">
            <Array as="points">
              <mxPoint x="784.7123233127611" y="274.73684210526324" />
              <mxPoint x="572.6279116066094" y="274.73684210526324" />
            </Array>
          </mxGeometry>
        </mxCell>
        <mxCell id="iqc0jquPFhY8QkZTMED7-17" value="元素：abc&lt;br&gt;权重：3" style="rounded=0;whiteSpace=wrap;html=1;fillColor=#dae8fc;strokeColor=#6c8ebf;fontSize=16;" parent="iqc0jquPFhY8QkZTMED7-52" vertex="1">
          <mxGeometry x="763.5038821421459" y="45.78947368421053" width="84.83376468246068" height="183.1578947368421" as="geometry" />
        </mxCell>
        <mxCell id="iqc0jquPFhY8QkZTMED7-1" style="edgeStyle=orthogonalEdgeStyle;rounded=0;orthogonalLoop=1;jettySize=auto;html=1;entryX=0;entryY=0.167;entryDx=0;entryDy=0;entryPerimeter=0;fontSize=16;" parent="iqc0jquPFhY8QkZTMED7-52" source="iqc0jquPFhY8QkZTMED7-2" target="iqc0jquPFhY8QkZTMED7-17" edge="1">
          <mxGeometry as="geometry" />
        </mxCell>
        <mxCell id="iqc0jquPFhY8QkZTMED7-12" style="edgeStyle=orthogonalEdgeStyle;rounded=0;orthogonalLoop=1;jettySize=auto;html=1;entryX=0;entryY=0.833;entryDx=0;entryDy=0;entryPerimeter=0;fontSize=16;" parent="iqc0jquPFhY8QkZTMED7-52" source="iqc0jquPFhY8QkZTMED7-13" target="iqc0jquPFhY8QkZTMED7-17" edge="1">
          <mxGeometry as="geometry" />
        </mxCell>
        <mxCell id="iqc0jquPFhY8QkZTMED7-14" style="edgeStyle=orthogonalEdgeStyle;rounded=0;orthogonalLoop=1;jettySize=auto;html=1;entryX=0;entryY=0.5;entryDx=0;entryDy=0;fontSize=16;" parent="iqc0jquPFhY8QkZTMED7-52" source="iqc0jquPFhY8QkZTMED7-15" target="iqc0jquPFhY8QkZTMED7-17" edge="1">
          <mxGeometry as="geometry" />
        </mxCell>
        <mxCell id="iqc0jquPFhY8QkZTMED7-19" value="&lt;span style=&quot;font-size: 16px;&quot;&gt;leve[0]&lt;/span&gt;" style="rounded=0;whiteSpace=wrap;html=1;fillColor=#dae8fc;strokeColor=#6c8ebf;fontSize=16;" parent="iqc0jquPFhY8QkZTMED7-52" vertex="1">
          <mxGeometry x="848.3376468246066" y="167.89473684210526" width="84.83376468246068" height="61.05263157894738" as="geometry" />
        </mxCell>
        <mxCell id="iqc0jquPFhY8QkZTMED7-21" value="&lt;span style=&quot;font-size: 16px;&quot;&gt;leve[1]&lt;/span&gt;" style="rounded=0;whiteSpace=wrap;html=1;fillColor=#dae8fc;strokeColor=#6c8ebf;fontSize=16;" parent="iqc0jquPFhY8QkZTMED7-52" vertex="1">
          <mxGeometry x="848.3376468246066" y="106.84210526315792" width="84.83376468246068" height="61.05263157894738" as="geometry" />
        </mxCell>
        <mxCell id="iqc0jquPFhY8QkZTMED7-22" style="edgeStyle=orthogonalEdgeStyle;rounded=0;orthogonalLoop=1;jettySize=auto;html=1;fontSize=16;" parent="iqc0jquPFhY8QkZTMED7-52" source="iqc0jquPFhY8QkZTMED7-23" edge="1">
          <mxGeometry as="geometry">
            <mxPoint x="1018.0843121640452" y="75.95238095238095" as="targetPoint" />
          </mxGeometry>
        </mxCell>
        <mxCell id="iqc0jquPFhY8QkZTMED7-23" value="&lt;span style=&quot;font-size: 16px;&quot;&gt;leve[2]&lt;/span&gt;" style="rounded=0;whiteSpace=wrap;html=1;fillColor=#dae8fc;strokeColor=#6c8ebf;fontSize=16;" parent="iqc0jquPFhY8QkZTMED7-52" vertex="1">
          <mxGeometry x="848.3376468246066" y="45.78947368421053" width="84.83376468246068" height="61.05263157894738" as="geometry" />
        </mxCell>
        <mxCell id="iqc0jquPFhY8QkZTMED7-24" style="edgeStyle=orthogonalEdgeStyle;curved=1;rounded=0;orthogonalLoop=1;jettySize=auto;html=1;entryX=0.5;entryY=1;entryDx=0;entryDy=0;fontSize=16;" parent="iqc0jquPFhY8QkZTMED7-52" source="iqc0jquPFhY8QkZTMED7-25" target="iqc0jquPFhY8QkZTMED7-17" edge="1">
          <mxGeometry as="geometry">
            <Array as="points">
              <mxPoint x="1060.4220585307585" y="274.73684210526324" />
              <mxPoint x="805.9207644833764" y="274.73684210526324" />
            </Array>
          </mxGeometry>
        </mxCell>
        <mxCell id="iqc0jquPFhY8QkZTMED7-25" value="元素：abcd&lt;br&gt;权重：4" style="rounded=0;whiteSpace=wrap;html=1;fillColor=#dae8fc;strokeColor=#6c8ebf;fontSize=16;" parent="iqc0jquPFhY8QkZTMED7-52" vertex="1">
          <mxGeometry x="1018.005176189528" y="167.89473684210526" width="84.83376468246068" height="61.05263157894738" as="geometry" />
        </mxCell>
        <mxCell id="iqc0jquPFhY8QkZTMED7-18" style="edgeStyle=orthogonalEdgeStyle;rounded=0;orthogonalLoop=1;jettySize=auto;html=1;entryX=0;entryY=0.5;entryDx=0;entryDy=0;fontSize=16;" parent="iqc0jquPFhY8QkZTMED7-52" source="iqc0jquPFhY8QkZTMED7-19" target="iqc0jquPFhY8QkZTMED7-25" edge="1">
          <mxGeometry as="geometry" />
        </mxCell>
        <mxCell id="iqc0jquPFhY8QkZTMED7-27" value="&lt;span style=&quot;font-size: 16px;&quot;&gt;leve[0]&lt;/span&gt;" style="rounded=0;whiteSpace=wrap;html=1;fillColor=#dae8fc;strokeColor=#6c8ebf;fontSize=16;" parent="iqc0jquPFhY8QkZTMED7-52" vertex="1">
          <mxGeometry x="1102.8389408719888" y="167.89473684210526" width="84.83376468246068" height="61.05263157894738" as="geometry" />
        </mxCell>
        <mxCell id="iqc0jquPFhY8QkZTMED7-28" style="edgeStyle=orthogonalEdgeStyle;curved=1;rounded=0;orthogonalLoop=1;jettySize=auto;html=1;entryX=0.75;entryY=1;entryDx=0;entryDy=0;fontSize=16;" parent="iqc0jquPFhY8QkZTMED7-52" source="iqc0jquPFhY8QkZTMED7-29" target="iqc0jquPFhY8QkZTMED7-25" edge="1">
          <mxGeometry as="geometry">
            <Array as="points">
              <mxPoint x="1314.9233525781408" y="274.73684210526324" />
              <mxPoint x="1081.6304997013733" y="274.73684210526324" />
            </Array>
          </mxGeometry>
        </mxCell>
        <mxCell id="iqc0jquPFhY8QkZTMED7-29" value="元素：abcd&lt;br&gt;权重：5" style="rounded=0;whiteSpace=wrap;html=1;fillColor=#dae8fc;strokeColor=#6c8ebf;fontSize=16;" parent="iqc0jquPFhY8QkZTMED7-52" vertex="1">
          <mxGeometry x="1272.5064702369104" y="106.84210526315792" width="84.83376468246068" height="122.10526315789475" as="geometry" />
        </mxCell>
        <mxCell id="iqc0jquPFhY8QkZTMED7-20" style="edgeStyle=orthogonalEdgeStyle;rounded=0;orthogonalLoop=1;jettySize=auto;html=1;entryX=0;entryY=0.25;entryDx=0;entryDy=0;fontSize=16;" parent="iqc0jquPFhY8QkZTMED7-52" source="iqc0jquPFhY8QkZTMED7-21" target="iqc0jquPFhY8QkZTMED7-29" edge="1">
          <mxGeometry as="geometry" />
        </mxCell>
        <mxCell id="iqc0jquPFhY8QkZTMED7-26" style="edgeStyle=orthogonalEdgeStyle;rounded=0;orthogonalLoop=1;jettySize=auto;html=1;entryX=0;entryY=0.75;entryDx=0;entryDy=0;fontSize=16;" parent="iqc0jquPFhY8QkZTMED7-52" source="iqc0jquPFhY8QkZTMED7-27" target="iqc0jquPFhY8QkZTMED7-29" edge="1">
          <mxGeometry as="geometry" />
        </mxCell>
        <mxCell id="iqc0jquPFhY8QkZTMED7-30" style="edgeStyle=orthogonalEdgeStyle;rounded=0;orthogonalLoop=1;jettySize=auto;html=1;entryX=0;entryY=0.5;entryDx=0;entryDy=0;fontSize=16;" parent="iqc0jquPFhY8QkZTMED7-52" source="iqc0jquPFhY8QkZTMED7-31" edge="1">
          <mxGeometry as="geometry">
            <mxPoint x="1527.0077642842919" y="198.42105263157902" as="targetPoint" />
          </mxGeometry>
        </mxCell>
        <mxCell id="iqc0jquPFhY8QkZTMED7-31" value="&lt;span style=&quot;font-size: 16px;&quot;&gt;leve[0]&lt;/span&gt;" style="rounded=0;whiteSpace=wrap;html=1;fillColor=#dae8fc;strokeColor=#6c8ebf;fontSize=16;" parent="iqc0jquPFhY8QkZTMED7-52" vertex="1">
          <mxGeometry x="1357.340234919371" y="167.89473684210526" width="84.83376468246068" height="61.05263157894738" as="geometry" />
        </mxCell>
        <mxCell id="iqc0jquPFhY8QkZTMED7-32" style="edgeStyle=orthogonalEdgeStyle;rounded=0;orthogonalLoop=1;jettySize=auto;html=1;fontSize=16;" parent="iqc0jquPFhY8QkZTMED7-52" source="iqc0jquPFhY8QkZTMED7-33" edge="1">
          <mxGeometry as="geometry">
            <mxPoint x="1527.0077642842919" y="137.36842105263165" as="targetPoint" />
          </mxGeometry>
        </mxCell>
        <mxCell id="iqc0jquPFhY8QkZTMED7-33" value="&lt;span style=&quot;font-size: 16px;&quot;&gt;leve[1]&lt;/span&gt;" style="rounded=0;whiteSpace=wrap;html=1;fillColor=#dae8fc;strokeColor=#6c8ebf;fontSize=16;" parent="iqc0jquPFhY8QkZTMED7-52" vertex="1">
          <mxGeometry x="1357.340234919371" y="106.84210526315792" width="84.83376468246068" height="61.05263157894738" as="geometry" />
        </mxCell>
        <mxCell id="iqc0jquPFhY8QkZTMED7-34" value="头节点" style="text;html=1;align=center;verticalAlign=middle;resizable=0;points=[];autosize=1;fontSize=16;" parent="iqc0jquPFhY8QkZTMED7-52" vertex="1">
          <mxGeometry x="10.604220585307598" width="60" height="20" as="geometry" />
        </mxCell>
        <mxCell id="iqc0jquPFhY8QkZTMED7-35" value="NULL" style="text;html=1;align=center;verticalAlign=middle;resizable=0;points=[];autosize=1;fontSize=16;" parent="iqc0jquPFhY8QkZTMED7-52" vertex="1">
          <mxGeometry x="1516.403543698984" y="122.10526315789475" width="60" height="20" as="geometry" />
        </mxCell>
        <mxCell id="iqc0jquPFhY8QkZTMED7-36" value="NULL" style="text;html=1;align=center;verticalAlign=middle;resizable=0;points=[];autosize=1;fontSize=16;" parent="iqc0jquPFhY8QkZTMED7-52" vertex="1">
          <mxGeometry x="1516.403543698984" y="183.1578947368421" width="60" height="20" as="geometry" />
        </mxCell>
        <mxCell id="iqc0jquPFhY8QkZTMED7-37" value="NULL" style="text;html=1;align=center;verticalAlign=middle;resizable=0;points=[];autosize=1;fontSize=16;" parent="iqc0jquPFhY8QkZTMED7-52" vertex="1">
          <mxGeometry x="1018.0083416285088" y="62.5026315789474" width="60" height="20" as="geometry" />
        </mxCell>
        <mxCell id="iqc0jquPFhY8QkZTMED7-39" value="跨度1" style="text;html=1;align=center;verticalAlign=middle;resizable=0;points=[];autosize=1;fontSize=16;" parent="iqc0jquPFhY8QkZTMED7-52" vertex="1">
          <mxGeometry x="424.1731758909018" y="167.89619047619044" width="60" height="20" as="geometry" />
        </mxCell>
        <mxCell id="iqc0jquPFhY8QkZTMED7-40" value="跨度1" style="text;html=1;align=center;verticalAlign=middle;resizable=0;points=[];autosize=1;fontSize=16;" parent="iqc0jquPFhY8QkZTMED7-52" vertex="1">
          <mxGeometry x="180.90008958789565" y="167.89619047619044" width="60" height="20" as="geometry" />
        </mxCell>
        <mxCell id="iqc0jquPFhY8QkZTMED7-41" value="跨度2" style="text;html=1;align=center;verticalAlign=middle;resizable=0;points=[];autosize=1;fontSize=16;" parent="iqc0jquPFhY8QkZTMED7-52" vertex="1">
          <mxGeometry x="282.1197491538921" y="106.84428571428573" width="60" height="20" as="geometry" />
        </mxCell>
        <mxCell id="iqc0jquPFhY8QkZTMED7-42" value="跨度3" style="text;html=1;align=center;verticalAlign=middle;resizable=0;points=[];autosize=1;fontSize=16;" parent="iqc0jquPFhY8QkZTMED7-52" vertex="1">
          <mxGeometry x="424.1731758909018" y="45.79238095238092" width="60" height="20" as="geometry" />
        </mxCell>
        <mxCell id="iqc0jquPFhY8QkZTMED7-43" value="跨度0" style="text;html=1;align=center;verticalAlign=middle;resizable=0;points=[];autosize=1;fontSize=16;" parent="iqc0jquPFhY8QkZTMED7-52" vertex="1">
          <mxGeometry x="944.414259406729" y="34.88285714285709" width="60" height="20" as="geometry" />
        </mxCell>
        <mxCell id="iqc0jquPFhY8QkZTMED7-44" value="跨度2" style="text;html=1;align=center;verticalAlign=middle;resizable=0;points=[];autosize=1;fontSize=16;" parent="iqc0jquPFhY8QkZTMED7-52" vertex="1">
          <mxGeometry x="1067.148616364722" y="106.84428571428565" width="60" height="20" as="geometry" />
        </mxCell>
        <mxCell id="iqc0jquPFhY8QkZTMED7-45" value="跨度0" style="text;html=1;align=center;verticalAlign=middle;resizable=0;points=[];autosize=1;fontSize=16;" parent="iqc0jquPFhY8QkZTMED7-52" vertex="1">
          <mxGeometry x="1447.396973919968" y="106.84428571428565" width="60" height="20" as="geometry" />
        </mxCell>
        <mxCell id="iqc0jquPFhY8QkZTMED7-46" value="跨度0" style="text;html=1;align=center;verticalAlign=middle;resizable=0;points=[];autosize=1;fontSize=16;" parent="iqc0jquPFhY8QkZTMED7-52" vertex="1">
          <mxGeometry x="1442.1716255225956" y="167.89619047619036" width="60" height="20" as="geometry" />
        </mxCell>
        <mxCell id="iqc0jquPFhY8QkZTMED7-47" value="跨度1" style="text;html=1;align=center;verticalAlign=middle;resizable=0;points=[];autosize=1;fontSize=16;" parent="iqc0jquPFhY8QkZTMED7-52" vertex="1">
          <mxGeometry x="678.669721779813" y="106.8442857142857" width="60" height="20" as="geometry" />
        </mxCell>
        <mxCell id="iqc0jquPFhY8QkZTMED7-48" value="跨度1" style="text;html=1;align=center;verticalAlign=middle;resizable=0;points=[];autosize=1;fontSize=16;" parent="iqc0jquPFhY8QkZTMED7-52" vertex="1">
          <mxGeometry x="678.669721779813" y="167.89619047619044" width="60" height="20" as="geometry" />
        </mxCell>
        <mxCell id="iqc0jquPFhY8QkZTMED7-49" value="跨度1" style="text;html=1;align=center;verticalAlign=middle;resizable=0;points=[];autosize=1;fontSize=16;" parent="iqc0jquPFhY8QkZTMED7-52" vertex="1">
          <mxGeometry x="933.1662676687239" y="167.89619047619044" width="60" height="20" as="geometry" />
        </mxCell>
        <mxCell id="iqc0jquPFhY8QkZTMED7-50" value="跨度1" style="text;html=1;align=center;verticalAlign=middle;resizable=0;points=[];autosize=1;fontSize=16;" parent="iqc0jquPFhY8QkZTMED7-52" vertex="1">
          <mxGeometry x="1187.6750796336848" y="167.89619047619044" width="60" height="20" as="geometry" />
        </mxCell>
      </root>
    </mxGraphModel>
  </diagram>
</mxfile>
